Simulation
nRows=38
nColumns=15
endheader
time  TH_x TH_y TH_z SC_y  SC_z  SC_x  AC_y  AC_z  AC_x  GH_y  GH_z  GH_yy  EL_x  PS_y
0.0  0.000000  0.000000  0.000000  -43.39709183363566  -1.8919785962648714  10.029687873679418  49.52457995455816  -2.8313180163294707  -6.657640027713145  54.679339146460535  2.8672672825135788  -28.777362481995482  22.96800526628793  120.000000
0.0407894736842105  0.000000  0.000000  0.000000  -41.648945468158935  -0.17811892548488545  8.883473562519287  48.57994792165253  -2.085743800927878  -5.147795447694776  53.57601835775386  5.081555730819  -28.122801276463576  23.236053486276756  120.000000
0.081578947368421  0.000000  0.000000  0.000000  -40.064601940221266  1.1222061612133396  7.756800280113989  47.69761755071529  -1.4253203794890126  -3.9747863288362124  51.832618399482506  7.200582491124309  -26.866377651034227  23.338548354555872  120.000000
0.1223684210526315  0.000000  0.000000  0.000000  -38.86339510140998  2.065656294373375  6.631956450809736  46.95521970374839  -0.8110152752614893  -3.0007353932709266  50.335388581966754  9.258865035060763  -25.90610891550505  23.31905042084805  120.000000
0.163157894736842  0.000000  0.000000  0.000000  -38.05868158732305  2.720166613872888  5.506651253810728  46.38869829943043  -0.1716565909187114  -2.1366028853694585  49.21397113660911  11.217021255510556  -25.364973479588432  23.264237565598922  120.000000
0.2039473684210525  0.000000  0.000000  0.000000  -37.64017151233959  3.175754792147362  4.382637915388461  46.01626930111063  0.545634109663667  -1.2834159306989306  48.41839490990453  13.057604965309777  -25.19379371936995  23.224452176198106  120.000000
0.244736842105263  0.000000  0.000000  0.000000  -37.56520538038028  3.5007471296530666  3.245473133549099  45.83360047690436  1.401303727477551  -0.36348767022273376  47.86671106538831  14.791291763845503  -25.341067552619098  23.230388374321326  120.000000
0.2855263157894735  0.000000  0.000000  0.000000  -37.76114862474393  3.7450301205708145  2.0865231010450556  45.82219142247742  2.4356101209272283  0.6659175646461376  47.43249824128599  16.447116460670472  -25.70953825273089  23.30265827261937  120.000000
0.326315789473684  0.000000  0.000000  0.000000  -38.1528776748985  3.9481839191248653  0.9082758600538041  45.94757170737188  3.6617545080154703  1.8165464127027804  47.021313071605206  18.067264959779273  -26.228989794805564  23.45480251423141  120.000000
0.3671052631578945  0.000000  0.000000  0.000000  -38.676366851579225  4.138852084247535  -0.28055669587902876  46.16862704377999  5.066151023696225  3.079679009323845  46.560583515532734  19.705227071317722  -26.8373955680883  23.68389336513688  120.000000
0.407894736842105  0.000000  0.000000  0.000000  -39.268880002177234  4.349173795648995  -1.4652649864096423  46.435814737622216  6.6063231775356694  4.438436401253974  46.008302714827465  21.40719227014448  -27.480661563986423  23.961961585604005  120.000000
0.4486842105263155  0.000000  0.000000  0.000000  -39.865798730457065  4.619705305217331  -2.6273905516561227  46.69886147082433  8.221843103583115  5.87521565263334  45.35003381536439  23.198078212861308  -28.112813627611658  24.241520087404556  120.000000
0.489473684210526  0.000000  0.000000  0.000000  -40.42477316540176  4.975452201662068  -3.7392940235878283  46.919977898880795  9.860121766120745  7.367004052134609  44.59224362101756  25.081612440635382  -28.693389106147922  24.473850219814054  120.000000
0.5302631578947365  0.000000  0.000000  0.000000  -40.93156403177291  5.415511854946979  -4.75896452617042  47.0769771107698  11.47987757100738  8.873836158538573  43.75501815894141  27.051136087675776  -29.195872706323936  24.628812963298955  120.000000
0.571052631578947  0.000000  0.000000  0.000000  -41.39095691663436  5.927600389992498  -5.6318526065396854  47.15935277220141  13.045633104283684  10.344574798977206  42.87340169498312  29.087583405877677  -29.614129629971465  24.69974020134996  120.000000
0.6118421052631575  0.000000  0.000000  0.000000  -41.823260759794614  6.4970744182529545  -6.296573150001629  47.163883083800116  14.52301284537533  11.725627113629152  41.995166130886915  31.163211503304048  -29.96600769289825  24.69799169951917  120.000000
0.652631578947368  0.000000  0.000000  0.000000  -42.262021784091374  7.107581706090776  -6.688798005368992  47.096704598746356  15.878833499454867  12.964666346538591  41.17592547900187  33.2477104541969  -30.297304116714397  24.639621923770306  120.000000
0.6934210526315785  0.000000  0.000000  0.000000  -42.746207434257045  7.742593304575154  -6.74766438311589  46.9720281904016  17.080692745618165  14.016073152719391  40.4719954850519  35.3137790237103  -30.67719565299469  24.531848784442246  120.000000
0.734210526315789  0.000000  0.000000  0.000000  -43.31241095707696  8.386327704787968  -6.422270679921048  46.81337436928514  18.09924029501594  14.84574684813093  39.92850513067698  37.339498939374224  -31.184668774276265  24.367201198646047  120.000000
0.7749999999999995  0.000000  0.000000  0.000000  -43.9878935031922  9.025698304232934  -5.678849184753906  46.65177279563486  18.91156523366733  15.436947554975983  39.56617073115273  39.30695573965227  -31.881213515457787  24.128396140238394  120.000000
0.81578947368421  0.000000  0.000000  0.000000  -44.78434697734047  9.653135636686267  -4.509364191468669  46.52142835043656  19.504894680098857  15.797107889839761  39.368634243888124  41.1977840201558  -32.78145939182736  23.800651480538967  120.000000
0.8565789473684206  0.000000  0.000000  0.000000  -45.69714776807768  10.2666382721039  -2.9377486251361393  46.454501156508776  19.8818337399771  15.961871172372163  39.280441741557816  42.98802998678667  -33.837425788874356  23.382456122171558  120.000000
0.897368421052631  0.000000  0.000000  0.000000  -46.7090991545595  10.867031752676612  -1.0241045582255728  46.476870673444374  20.06392115476008  15.994584055108374  39.21570222217003  44.64696658167206  -34.94837165505488  22.891017178128198  120.000000
0.9381578947368415  0.000000  0.000000  0.000000  -47.79592694616243  11.45184990876024  1.144267400071424  46.60503965012111  20.086851546965722  15.970081964424276  39.082407188169135  46.14416159045923  -35.99776799041828  22.358573643163375  120.000000
0.978947368421052  0.000000  0.000000  0.000000  -48.92965806486275  12.0098338358025  3.4722829450563824  46.84525514307821  19.986034423695845  15.946606755677417  38.80986382577178  47.46477251749792  -36.89657807672171  21.82267553518533  120.000000
1.0197368421052626  0.000000  0.000000  0.000000  -50.08183239454407  12.522152738754368  5.867231508206681  47.19311897778493  19.793080829790632  15.955389474527587  38.36621586770512  48.61377900991303  -37.60990331383472  21.314933020066295  120.000000
1.060526315789473  0.000000  0.000000  0.000000  -51.22627515538286  12.968769134834206  8.240976166969181  47.634333608960596  19.538998845650514  16.00647254016412  37.76208199868127  49.60928762544474  -38.1592078370646  20.853145610072982  120.000000
1.1013157894736836  0.000000  0.000000  0.000000  -52.338794368551206  13.333290389152435  10.514955933998282  48.146224616868764  19.251754691649605  16.092523969753316  37.04373461247907  50.475725099598435  -38.60310521891965  20.440798041421264  120.000000
1.142105263157894  0.000000  0.000000  0.000000  -53.394511654809534  13.605435831833228  12.624530902815133  48.70029225950125  18.953588865054463  16.192157418871595  36.27800489841013  51.235962378950006  -39.007559894420446  20.072247671619053  120.000000
1.1828947368421046  0.000000  0.000000  0.000000  -54.36585170161055  13.783663419425956  14.514906607444031  49.26387132229743  18.662641283525662  16.2811773613279  35.53405772792795  51.903072497528754  -39.41813001341632  19.73804595519474  120.000000
1.223684210526315  0.000000  0.000000  0.000000  -55.2238765968859  13.876537744302201  16.132681458571575  49.80197281956215  18.401560250740566  16.34855071389923  34.86842282569771  52.470324594035986  -39.848773995282095  19.42884105128474  120.000000
1.2644736842105255  0.000000  0.000000  0.000000  -55.939537840539074  13.900225299221235  17.426899315115715  50.278875344635054  18.19551921386924  16.395665551807028  34.321419492257846  52.91423692158367  -40.29082824037176  19.139042822147594  120.000000
1.305263157894736  0.000000  0.000000  0.000000  -56.48439750003701  13.874331335612379  18.358764499325524  50.65999472644177  18.05995341075623  16.421822915725873  33.921736400308475  53.20745356332162  -40.731419576985495  18.870487378522068  120.000000
1.3460526315789465  0.000000  0.000000  0.000000  -56.834773543033194  13.819099765182113  18.902991716872002  50.91497906335519  18.001300380281926  16.425373574714275  33.68769005693338  53.32003129030821  -41.16507273713626  18.634418965028615  120.000000
1.386842105263157  0.000000  0.000000  0.000000  -56.97545983954983  13.754401322722714  19.04703535113586  51.02056949811239  18.017424227386112  16.40683392815008  33.62888647172237  53.22192159497702  -41.59658529220568  18.44760352837083  120.000000
1.4276315789473675  0.000000  0.000000  0.000000  -56.90262122225354  13.697489054689157  18.788166187745098  50.96320425326525  18.103339966126878  16.374196908932753  33.74648710231934  52.88149134152406  -42.037479955121576  18.328153440167622  120.000000
1.468421052631578  0.000000  0.000000  0.000000  -56.621269717550646  13.654073889620875  18.14175995579746  50.74254542018366  18.246713375652316  16.329061969399177  34.036961367238334  52.27503144026892  -42.501620174048824  18.291175876108984  120.000000
1.5092105263157884  0.000000  0.000000  0.000000  -56.13809373078714  13.610769896994423  17.16588369871495  50.37438656831562  18.39929121521061  16.22613787849444  34.50372840006867  51.414680103316655  -43.00743372942544  18.343648029085095  120.000000
